<svg xmlns="http://www.w3.org/2000/svg" width="75" height="78" viewBox="0 0 75 78" fill="none"><metadata><rdf:RDF xmlns:rdf="http://www.w3.org/1999/02/22-rdf-syntax-ns#" xmlns:dc="http://purl.org/dc/elements/1.1/"><rdf:Description><dc:creator>RealFaviconGenerator</dc:creator><dc:source>https://realfavicongenerator.net</dc:source></rdf:Description></rdf:RDF></metadata><path d="M0 32V36H75V32H0Z" fill="#B22133"></path><path d="M0 40V44H75V40H0Z" fill="#B22133"></path><path d="M0 48V52H75V48H0Z" fill="#B22133"></path><path d="M5 56V60H70V56H5Z" fill="#B22133"></path><path d="M18 64V68H58V64H18Z" fill="#B22133"></path><path d="M31 72V76H44V72H31Z" fill="#B22133"></path><path d="M0 16V20H75V16H0Z" fill="#B22133"></path><path d="M0 24V28H75V24H0Z" fill="#B22133"></path><path d="M0 0V4H75V0H0Z" fill="#B22133"></path><path d="M0 8V12H75V8H0Z" fill="#B22133"></path><path d="M8 34V38H67V34H8Z" fill="#B22133"></path><path d="M8 42V46H67V42H8Z" fill="#B22133"></path><path d="M8 50V54H67V50H8Z" fill="#B22133"></path><path d="M11 58V62H64V58H11Z" fill="#B22133"></path><path d="M21 66V70H54V66H21Z" fill="#B22133"></path><path d="M32 74V78H43V74H32Z" fill="#B22133"></path><path d="M8 18V22H67V18H8Z" fill="#B22133"></path><path d="M8 26V30H67V26H8Z" fill="#B22133"></path><path d="M8 2V6H67V2H8Z" fill="#B22133"></path><path d="M8 10V14H67V10H8Z" fill="#B22133"></path><style>@media (prefers-color-scheme: light) { :root { filter: none; } }
@media (prefers-color-scheme: dark) { :root { filter: contrast(0.8333333333333334) brightness(1.7); } }
</style></svg>